<svg id="Layer_1" data-name="Layer 1" xmlns="http://www.w3.org/2000/svg" viewBox="0 0 512 512"><defs><style>.cls-1{fill:#fff000;}</style></defs><title>phone-message-handdrawn</title><path class="cls-1" d="M119.91,432.21a99.18,99.18,0,0,0-.72,11,64,64,0,0,0,5.54,26.43,70.75,70.75,0,0,0,26.63,30.81,73.82,73.82,0,0,0,31.13,11.06c2.75.28,5.55.34,8.29.48H321.25l4.14-.19a56.57,56.57,0,0,0,8.27-.91c22.06-3.46,41.73-18.08,52.17-37.66l0,0a76.62,76.62,0,0,0,6.83-18.61,80.11,80.11,0,0,0,1.43-9.82c.19-3.34.35-6.66.29-9.49V392.07h-9c.07-1,.13-2,.18-3.18.79-20.95,1.5-42.69,1.9-64.87.56-39.37,1.12-79.19,1.68-119q.51-48,1-96.24l-4,0c1.85-4,3.46-10.73,4.74-19.55.42-2.9.81-6,1.16-9.38a99.18,99.18,0,0,0,.72-11,64,64,0,0,0-5.54-26.43,70.74,70.74,0,0,0-26.63-30.81A73.82,73.82,0,0,0,329.52.49C326.77.2,324,.15,321.23,0H190.75l-4.14.19a56.62,56.62,0,0,0-8.27.91c-22.06,3.46-41.73,18.08-52.17,37.66l0,0a76.62,76.62,0,0,0-6.83,18.61,80,80,0,0,0-1.43,9.82c-.19,3.34-.35,6.66-.29,9.49v43.26h2.32q0,23.18-.06,46.4.2,27.1.4,54.31c.07,5.43-.08,11.54-.24,16.93q-1.18,39.94-1.53,80.6-.18,44.18-.36,88.77h6.31a102.5,102.5,0,0,0-3.38,15.9C120.64,425.74,120.26,428.87,119.91,432.21ZM137.78,44.58C148.37,25.21,169.56,12.71,192,12.71c3.34-.07,7.1.08,10.42.24,37,1.78,74.92,1.92,112.91,1.88a105.41,105.41,0,0,1,13.33.5A55.38,55.38,0,0,1,341,18.26a58.34,58.34,0,0,1,21.29,13.39,56.74,56.74,0,0,1,13.35,21.14,35.67,35.67,0,0,1,1.76,6,38.4,38.4,0,0,1,1.08,6.13,82.05,82.05,0,0,1,.31,13c0,1.7,0,3.53,0,5.28.18,11.46,1.19,20.73,2.58,25.52l-72.75-.49-178.92-1.27.49-30.42A63.76,63.76,0,0,1,137.78,44.58ZM134,119.94H239.66l79.49.22c6.72,0,13.1-.06,19.27-.23H379v41q-.11,64.56-.22,129.15c-.12,39.48,1.13,72.89,3.49,102l-109.92,0-79.49-.22c-7.24,0-14,.09-20.65.29H133V119.94Zm94.43,287c34.34,0,68.56.23,102.43.81l8.59,0c19.78-.19,35.54-1.32,42.82-2.84l-.5,30.66a63.76,63.76,0,0,1-7.59,31.93c-10.59,19.37-31.78,31.88-54.24,31.88-3.34.07-7.1-.08-10.42-.24-37-1.78-74.92-1.92-112.91-1.88a105.34,105.34,0,0,1-13.33-.5,55.34,55.34,0,0,1-12.3-2.94,58.34,58.34,0,0,1-21.29-13.39,56.74,56.74,0,0,1-13.35-21.14,35.68,35.68,0,0,1-1.76-6,38.45,38.45,0,0,1-1.08-6.13,82.1,82.1,0,0,1-.31-13c0-1.7,0-3.53,0-5.28a142.55,142.55,0,0,0-1.76-21.91Zm14.47,45.16A13.07,13.07,0,1,1,256,465.12,13.07,13.07,0,0,1,242.93,452.05Zm2.62-384.69c-1.37-.72-2.36-4.52-2.6-9.75-.12-2.75.38-5.27,1.11-5.57.07,0,.14-.08.2,0,2.89,2.08,5.89-.9,8.76,2.66.13.15.27.31.4.24,2.33-1.26,4.63.67,6.95,1a22.78,22.78,0,0,1,6.9,3.25,7.51,7.51,0,0,1,1.54,1.9,6.29,6.29,0,0,1,.08,3.33c-.69,2.37-1.49,3.62-2.43,3.5a27.28,27.28,0,0,0-3.07-.22c-2.39,0-4.78,0-7.17,0v0c-3.08,0-6.15,0-9.23,0A2.92,2.92,0,0,1,245.55,67.36ZM195.48,304.07a39.73,39.73,0,0,0,18.42,10.16,42,42,0,0,0,10.33,1.16l8.72,0c11.62.07,23.19.27,34.66.79,1,0,2.17,0,3.24,0,11.53-.3,19.48-2.82,17.53-5.57-3.72-5.23-19.49-9-41.19-9.75-7.48-.25-15.13-.24-22.71-.24a25.26,25.26,0,0,1-23.27-13.33,27.57,27.57,0,0,1-2.37-6.55,27.15,27.15,0,0,1-.44-3.47l-.09-1.78V236.65a25.39,25.39,0,0,1,3.24-12.4,21.35,21.35,0,0,0,4.25,5c1.93,1.68,4.05,3.19,6.15,4.69L256,265.42l1.79-1.28v.05l35.1-25,13.63-9.46a24.55,24.55,0,0,0,4.59-4,24.45,24.45,0,0,1,2.52,11.13l-.07,24.37-.07,12.19a47.31,47.31,0,0,1-.23,5.17,29.47,29.47,0,0,1-1,4.5c-3.68,10.73-12,17.53-21.13,20.72-3.5,1-3.54,3.07,1.48,3.18A30.28,30.28,0,0,0,314.36,297a33.76,33.76,0,0,0,8.7-21.09q.38-11.26.76-22.55l.48-16.09A35.87,35.87,0,0,0,293,200c-5.39-.54-9.49-.29-14.21-.46L265,199.21l-27.47-.63-13.75-.23a37.53,37.53,0,0,0-15.57,3,37,37,0,0,0-20.72,23.23c-.67,2.27-1.4,4.83-1.84,7.16-.34,1.6-.45,3.32-.62,4.89l-.28,4.28-.46,8.58q-.29,8.62-.57,17.28l-.15,8.68a40.21,40.21,0,0,0,1.31,10.45A39.27,39.27,0,0,0,195.48,304.07Zm23.39-92.26a40,40,0,0,1,7.75-.42v0h56.86c5.19,0,8.49-.06,12,1A24.08,24.08,0,0,1,305,217.5c.62.54,1.1,1.2,1.66,1.79-.54.25-1.09.47-1.62.75-4.52,2.37-9,4.9-13.42,7.52-6.3,3.73-12.69,7.37-18.77,11.48-3.26,2.2-6.6,4.26-10,6.32l-5,3.1-1.85,1-.89-.74-1.61-1.13c-1.91-1.31-3.88-2.56-5.91-3.73a7.21,7.21,0,0,1-1.63-1.46c-9.87-11.16-23.59-18-34.75-27.75.35-.2.69-.43,1-.61A23.89,23.89,0,0,1,218.87,211.81Z"/></svg>